<?xml version="1.0" standalone="no"?>
<!DOCTYPE svg PUBLIC "-//W3C//DTD SVG 20010904//EN"
 "http://www.w3.org/TR/2001/REC-SVG-20010904/DTD/svg10.dtd">
<svg version="1.0" xmlns="http://www.w3.org/2000/svg"
 width="512.000000pt" height="512.000000pt" viewBox="0 0 512.000000 512.000000"
 preserveAspectRatio="xMidYMid meet">
<metadata>
Created by potrace 1.11, written by Peter Selinger 2001-2013
</metadata>
<g transform="translate(0.000000,512.000000) scale(0.100000,-0.100000)"
fill="#000000" stroke="none">
<path d="M2378 4475 c-2 -1 -32 -6 -68 -9 -36 -4 -72 -9 -80 -11 -8 -2 -31 -6
-50 -9 -58 -9 -221 -53 -295 -81 -84 -31 -279 -125 -283 -137 -2 -4 -8 -8 -13
-8 -15 0 -147 -91 -230 -159 -147 -118 -270 -252 -381 -411 -61 -89 -138 -231
-177 -326 -18 -43 -36 -88 -41 -99 -15 -33 -69 -217 -74 -254 -4 -28 1 -39 24
-62 l28 -29 275 0 c319 0 297 -7 346 107 17 39 41 93 53 120 12 26 22 50 22
53 3 16 70 124 111 177 199 266 506 444 845 492 84 12 339 6 410 -9 70 -15
189 -48 215 -60 137 -61 182 -85 254 -134 46 -32 90 -63 97 -71 8 -7 26 -23
41 -35 l27 -21 -191 -192 c-204 -205 -212 -217 -198 -298 9 -51 67 -113 115
-122 18 -4 293 -7 612 -7 646 0 622 -2 676 68 l27 35 2 610 c3 681 7 641 -68
696 -45 34 -110 39 -157 14 -17 -10 -108 -93 -200 -185 l-167 -168 -40 35
c-276 244 -690 439 -1000 471 -22 2 -47 7 -55 10 -15 6 -405 15 -412 9z"/>
<path d="M732 2223 c-18 -9 -45 -32 -60 -51 l-27 -35 -2 -610 c-3 -563 -2
-611 15 -639 23 -41 70 -75 114 -83 76 -14 92 -4 283 186 l181 179 64 -57
c197 -172 413 -295 665 -378 74 -25 175 -51 228 -60 18 -3 57 -10 87 -16 30
-6 138 -13 240 -14 206 -3 295 5 460 40 14 3 34 7 45 9 44 9 165 50 250 84
309 123 609 360 814 641 49 68 142 224 173 291 58 125 96 226 133 358 24 88
25 95 10 126 -9 19 -26 37 -38 40 -12 3 -137 6 -278 6 -230 0 -259 -2 -277
-17 -11 -10 -42 -67 -68 -128 -69 -163 -96 -212 -161 -300 -151 -203 -361
-357 -605 -443 -129 -46 -236 -64 -394 -67 -309 -7 -587 89 -827 283 l-68 55
190 191 c155 157 190 198 196 227 14 74 -11 132 -74 174 l-35 24 -600 1 c-538
0 -604 -2 -634 -17z"/>
</g>
</svg>
